<svg width="24" height="24" viewBox="0 0 24 24" fill="none" xmlns="http://www.w3.org/2000/svg">
<path d="M12 7.25C12.2761 7.25 12.5 7.47386 12.5 7.75V11.5H16.25C16.5261 11.5 16.75 11.7239 16.75 12C16.75 12.2761 16.5261 12.5 16.25 12.5H12.5V16.25C12.5 16.5261 12.2761 16.75 12 16.75C11.7239 16.75 11.5 16.5261 11.5 16.25V12.5H7.75C7.47386 12.5 7.25 12.2761 7.25 12C7.25 11.7239 7.47386 11.5 7.75 11.5H11.5V7.75C11.5 7.47386 11.7239 7.25 12 7.25Z" fill="#E61E28"/>
<path fill-rule="evenodd" clip-rule="evenodd" d="M17.9209 2.00586C20.193 2.12084 21.9999 3.99916 22 6.2998V17.7002L21.9941 17.9209C21.8829 20.1199 20.1199 21.8829 17.9209 21.9941L17.7002 22H6.2998C3.99916 21.9999 2.12084 20.193 2.00586 17.9209L2 17.7002V6.2998C2.00011 3.92514 3.92514 2.00011 6.2998 2H17.7002L17.9209 2.00586ZM6.2998 3C4.47742 3.00011 3.00011 4.47742 3 6.2998V17.7002C3.00011 19.5226 4.47742 20.9999 6.2998 21H17.7002C19.5226 20.9999 20.9999 19.5226 21 17.7002V6.2998C20.9999 4.47742 19.5226 3.00011 17.7002 3H6.2998Z" fill="#E61E28"/>
</svg>
