<svg width="711" height="32" viewBox="0 0 711 32" fill="none" xmlns="http://www.w3.org/2000/svg">
<line x1="351.5" y1="26" x2="351.5" y2="6" stroke="#DFECFD"/>
<line x1="312.5" y1="26" x2="312.5" y2="6" stroke="#DFECFD"/>
<line x1="273.5" y1="26" x2="273.5" y2="6" stroke="#DFECFD"/>
<line x1="234.5" y1="26" x2="234.5" y2="6" stroke="#DFECFD"/>
<line x1="195.5" y1="26" x2="195.5" y2="6" stroke="#DFECFD"/>
<line x1="156.5" y1="26" x2="156.5" y2="6" stroke="#DFECFD"/>
<line x1="117.5" y1="26" x2="117.5" y2="6" stroke="#DFECFD"/>
<line x1="78.5" y1="26" x2="78.5" y2="6" stroke="#DFECFD"/>
<line x1="39.5" y1="26" x2="39.5" y2="6" stroke="#DFECFD"/>
<line x1="0.5" y1="26" x2="0.500001" y2="6" stroke="#DFECFD"/>
<line x1="390.5" y1="26" x2="390.5" y2="6" stroke="#DFECFD"/>
<line x1="468.5" y1="26" x2="468.5" y2="6" stroke="#DFECFD"/>
<line x1="507.5" y1="26" x2="507.5" y2="6" stroke="#DFECFD"/>
<line x1="546.5" y1="26" x2="546.5" y2="6" stroke="#DFECFD"/>
<line x1="585.5" y1="26" x2="585.5" y2="6" stroke="#DFECFD"/>
<line x1="624.5" y1="26" x2="624.5" y2="6" stroke="#DFECFD"/>
<line x1="663.5" y1="26" x2="663.5" y2="6" stroke="#DFECFD"/>
<line x1="702.5" y1="26" x2="702.5" y2="6" stroke="#DFECFD"/>
<line x1="429.5" y1="26" x2="429.5" y2="6" stroke="#DFECFD"/>
<line x1="711" y1="17" x2="1" y2="17" stroke="#2F5EB1" stroke-width="2"/>
<g filter="url(#filter0_d_1_693)">
<circle cx="429" cy="16" r="10" fill="#F1F6FE"/>
<circle cx="429" cy="16" r="9.5" stroke="#2F5EB1"/>
</g>
<g filter="url(#filter1_d_1_693)">
<circle cx="429" cy="16" r="5" fill="#2F5EB1"/>
</g>
<defs>
<filter id="filter0_d_1_693" x="413" y="0" width="32" height="32" filterUnits="userSpaceOnUse" color-interpolation-filters="sRGB">
<feFlood flood-opacity="0" result="BackgroundImageFix"/>
<feColorMatrix in="SourceAlpha" type="matrix" values="0 0 0 0 0 0 0 0 0 0 0 0 0 0 0 0 0 0 127 0" result="hardAlpha"/>
<feMorphology radius="2" operator="dilate" in="SourceAlpha" result="effect1_dropShadow_1_693"/>
<feOffset/>
<feGaussianBlur stdDeviation="2"/>
<feComposite in2="hardAlpha" operator="out"/>
<feColorMatrix type="matrix" values="0 0 0 0 0 0 0 0 0 0 0 0 0 0 0 0 0 0 0.1 0"/>
<feBlend mode="normal" in2="BackgroundImageFix" result="effect1_dropShadow_1_693"/>
<feBlend mode="normal" in="SourceGraphic" in2="effect1_dropShadow_1_693" result="shape"/>
</filter>
<filter id="filter1_d_1_693" x="418" y="5" width="22" height="22" filterUnits="userSpaceOnUse" color-interpolation-filters="sRGB">
<feFlood flood-opacity="0" result="BackgroundImageFix"/>
<feColorMatrix in="SourceAlpha" type="matrix" values="0 0 0 0 0 0 0 0 0 0 0 0 0 0 0 0 0 0 127 0" result="hardAlpha"/>
<feMorphology radius="2" operator="dilate" in="SourceAlpha" result="effect1_dropShadow_1_693"/>
<feOffset/>
<feGaussianBlur stdDeviation="2"/>
<feComposite in2="hardAlpha" operator="out"/>
<feColorMatrix type="matrix" values="0 0 0 0 0 0 0 0 0 0 0 0 0 0 0 0 0 0 0.1 0"/>
<feBlend mode="normal" in2="BackgroundImageFix" result="effect1_dropShadow_1_693"/>
<feBlend mode="normal" in="SourceGraphic" in2="effect1_dropShadow_1_693" result="shape"/>
</filter>
</defs>
</svg>
